<svg xmlns="http://www.w3.org/2000/svg" viewBox="0 0 83.55 83.15"><defs><style>.cls-1{fill:#f29424;}.cls-2{fill:#fff;}</style></defs><g id="Layer_2" data-name="Layer 2"><g id="Layer_1-2" data-name="Layer 1"><g id="Layer_2-2" data-name="Layer 2"><g id="Layer_1-2-2" data-name="Layer 1-2"><g id="Layer_1-2-3" data-name="Layer 1-2"><path class="cls-1" d="M41.77,0A41.58,41.58,0,1,0,83.55,41.58h0A41.72,41.72,0,0,0,41.77,0Zm0,77.43a35.83,35.83,0,1,1,36-35.82A35.91,35.91,0,0,1,41.77,77.43Z"/><path class="cls-2" d="M60.81,33.71a14.3,14.3,0,0,0-.89-4.62,9.83,9.83,0,0,0-5.6-5.58,14.2,14.2,0,0,0-4.65-.88c-2-.09-2.69-.11-7.89-.11s-5.85,0-7.89.11a14.2,14.2,0,0,0-4.65.88,9.83,9.83,0,0,0-5.6,5.58,13.78,13.78,0,0,0-.89,4.62c-.09,2-.11,2.68-.11,7.86s0,5.83.11,7.86a13.78,13.78,0,0,0,.89,4.62,9.83,9.83,0,0,0,5.6,5.58,14.2,14.2,0,0,0,4.65.88c2,.09,2.7.12,7.89.12s5.85,0,7.89-.12a14.2,14.2,0,0,0,4.65-.88,9.83,9.83,0,0,0,5.6-5.58,13.78,13.78,0,0,0,.89-4.62c.09-2,.11-2.68.11-7.86S60.92,35.74,60.81,33.71ZM57.36,49.27a10.19,10.19,0,0,1-.66,3.54A5.78,5.78,0,0,1,55.27,55a6,6,0,0,1-2.2,1.42,10.54,10.54,0,0,1-3.56.66c-2,.09-2.62.11-7.73.11s-5.72,0-7.73-.11a10.79,10.79,0,0,1-3.56-.66,6.27,6.27,0,0,1-3.63-3.61,10.67,10.67,0,0,1-.66-3.54c-.09-2-.11-2.61-.11-7.7s0-5.69.11-7.7a10.72,10.72,0,0,1,.66-3.54,6.11,6.11,0,0,1,1.43-2.19,5.92,5.92,0,0,1,2.2-1.42A10.36,10.36,0,0,1,34,26.06C36,26,36.63,26,41.74,26s5.71,0,7.73.11a10.3,10.3,0,0,1,3.56.66,6.3,6.3,0,0,1,3.63,3.61,10.24,10.24,0,0,1,.7,3.5c.09,2,.11,2.61.11,7.7S57.45,47.26,57.36,49.27Z"/><path class="cls-2" d="M41.78,31.78a9.8,9.8,0,1,0,9.83,9.81v0A9.81,9.81,0,0,0,41.78,31.78Zm6.38,9.79a6.39,6.39,0,1,1-6.4-6.36,6.36,6.36,0,0,1,6.4,6.36Z"/><path class="cls-2" d="M54.3,31.4A2.3,2.3,0,1,1,52,29.11a2.27,2.27,0,0,1,2.3,2.29Z"/></g></g></g></g></g></svg>